/* XPM */
static char *idle[] = {
/* columns rows colors chars-per-pixel */
"16 16 5 1",
"  c black",
". c #FF0000",
"X c #FFFF00",
"o c #F4F4F4",
"0 c None",
/* pixels */
"0000000000000000"
"00000XXXX0000000"
"0000X0000X000000"
"0000X0000X000000"
"00000XXXX0000000"
"000000XX00000000"
"000000X.00000000"
"000000XX00000000"
"0000000000000000"
"0000000000000000"
"0000000000000000"
"0000000000000000"
"0000000000000000"
"0000000000000000"
"0000000000000000"
"0000000000000000"
};
