/* XPM */
static char *idle[] = {
/* columns rows colors chars-per-pixel */
"16 16 5 1",
"  c black",
". c #FF0000",
"X c #FFFF00",
"o c #F4F4F4",
"O c None",
/* pixels */
"................"
"XXXXXXXXXXXXXXXX"
"XXXXXXXXXXXXXXXX"
"XXXXXXXXXXXXXXXX"
"XXXXXXXXXXXXXXXX"
"XXXXXXXXXXXXXXXX"
"XXXXXXXXXXXXXXXX"
"XXXXXXXXXXXXXXXX"
"XXXXXXXXXXXXXXXX"
"XXXXXXXXXXXXXXXX"
"XXXXXXXXXXXXXXXX"
"XXXXXXXXXXXXXXXX"
"XXXXXXXXXXXXXXXX"
"XXXXXXXXXXXXXXXX"
"XXXXXXXXXXXXXXXX"
"XXXXXXXXXXXXXXXX"
};
